<svg width="25" height="25" viewBox="0 0 25 25" fill="none" xmlns="http://www.w3.org/2000/svg">
<circle opacity="0.1" cx="12.5" cy="12.0703" r="12" fill="#3B7DED"/>
<path d="M16.7 7.27031H15.5V6.67031C15.5 6.51118 15.4368 6.35857 15.3243 6.24605C15.2117 6.13353 15.0591 6.07031 14.9 6.07031C14.7409 6.07031 14.5883 6.13353 14.4757 6.24605C14.3632 6.35857 14.3 6.51118 14.3 6.67031V7.27031H10.7V6.67031C10.7 6.51118 10.6368 6.35857 10.5243 6.24605C10.4117 6.13353 10.2591 6.07031 10.1 6.07031C9.94087 6.07031 9.78826 6.13353 9.67574 6.24605C9.56321 6.35857 9.5 6.51118 9.5 6.67031V7.27031H8.3C7.82261 7.27031 7.36477 7.45995 7.02721 7.79752C6.68964 8.13509 6.5 8.59292 6.5 9.07031V16.2703C6.5 16.7477 6.68964 17.2055 7.02721 17.5431C7.36477 17.8807 7.82261 18.0703 8.3 18.0703H16.7C17.1774 18.0703 17.6352 17.8807 17.9728 17.5431C18.3104 17.2055 18.5 16.7477 18.5 16.2703V9.07031C18.5 8.59292 18.3104 8.13509 17.9728 7.79752C17.6352 7.45995 17.1774 7.27031 16.7 7.27031ZM17.3 16.2703C17.3 16.4294 17.2368 16.5821 17.1243 16.6946C17.0117 16.8071 16.8591 16.8703 16.7 16.8703H8.3C8.14087 16.8703 7.98826 16.8071 7.87574 16.6946C7.76321 16.5821 7.7 16.4294 7.7 16.2703V12.0703H17.3V16.2703ZM17.3 10.8703H7.7V9.07031C7.7 8.91118 7.76321 8.75857 7.87574 8.64605C7.98826 8.53353 8.14087 8.47031 8.3 8.47031H9.5V9.07031C9.5 9.22944 9.56321 9.38205 9.67574 9.49458C9.78826 9.6071 9.94087 9.67031 10.1 9.67031C10.2591 9.67031 10.4117 9.6071 10.5243 9.49458C10.6368 9.38205 10.7 9.22944 10.7 9.07031V8.47031H14.3V9.07031C14.3 9.22944 14.3632 9.38205 14.4757 9.49458C14.5883 9.6071 14.7409 9.67031 14.9 9.67031C15.0591 9.67031 15.2117 9.6071 15.3243 9.49458C15.4368 9.38205 15.5 9.22944 15.5 9.07031V8.47031H16.7C16.8591 8.47031 17.0117 8.53353 17.1243 8.64605C17.2368 8.75857 17.3 8.91118 17.3 9.07031V10.8703Z" fill="#3B7DED" stroke="white" stroke-width="0.2"/>
</svg>
