<svg width="25" height="25" viewBox="0 0 25 25" fill="none" xmlns="http://www.w3.org/2000/svg">
<path d="M9.81781 18.2085C9.40781 18.2085 9.06781 17.8685 9.06781 17.4585V13.2685L8.34781 13.9885C8.05781 14.2785 7.57781 14.2785 7.28781 13.9885C6.99781 13.6985 6.99781 13.2185 7.28781 12.9285L9.28781 10.9285C9.49781 10.7185 9.82781 10.6485 10.1078 10.7685C10.3878 10.8785 10.5678 11.1585 10.5678 11.4585V17.4585C10.5678 17.8685 10.2278 18.2085 9.81781 18.2085Z" fill="#9A9FA5"/>
<path d="M11.8178 14.2084C11.6278 14.2084 11.4378 14.1384 11.2878 13.9884L9.28781 11.9884C8.99781 11.6984 8.99781 11.2184 9.28781 10.9284C9.57781 10.6384 10.0578 10.6384 10.3478 10.9284L12.3478 12.9284C12.6378 13.2184 12.6378 13.6984 12.3478 13.9884C12.1978 14.1384 12.0078 14.2084 11.8178 14.2084Z" fill="#9A9FA5"/>
<path d="M15.8174 23.2085H9.81738C4.38738 23.2085 2.06738 20.8885 2.06738 15.4585V9.4585C2.06738 4.0285 4.38738 1.7085 9.81738 1.7085H14.8174C15.2274 1.7085 15.5674 2.0485 15.5674 2.4585C15.5674 2.8685 15.2274 3.2085 14.8174 3.2085H9.81738C5.20738 3.2085 3.56738 4.8485 3.56738 9.4585V15.4585C3.56738 20.0685 5.20738 21.7085 9.81738 21.7085H15.8174C20.4274 21.7085 22.0674 20.0685 22.0674 15.4585V10.4585C22.0674 10.0485 22.4074 9.7085 22.8174 9.7085C23.2274 9.7085 23.5674 10.0485 23.5674 10.4585V15.4585C23.5674 20.8885 21.2474 23.2085 15.8174 23.2085Z" fill="#9A9FA5"/>
<path d="M22.8174 11.2085H18.8174C15.3974 11.2085 14.0674 9.87848 14.0674 6.45848V2.45848C14.0674 2.15848 14.2474 1.87848 14.5274 1.76848C14.8074 1.64848 15.1274 1.71848 15.3474 1.92848L23.3474 9.92848C23.5574 10.1385 23.6274 10.4685 23.5074 10.7485C23.3874 11.0285 23.1174 11.2085 22.8174 11.2085ZM15.5674 4.26848V6.45848C15.5674 9.03848 16.2374 9.70848 18.8174 9.70848H21.0074L15.5674 4.26848Z" fill="#9A9FA5"/>
</svg>
