<svg width="25" height="25" viewBox="0 0 25 25" fill="none" xmlns="http://www.w3.org/2000/svg">
<path d="M24.1698 18.0368L23.5824 17.9202C23.307 17.8654 23.0902 17.6789 22.9877 17.4082C22.8848 17.1378 22.9214 16.8486 23.0874 16.6145L23.4563 16.094C23.5751 15.9265 23.558 15.694 23.4156 15.5471L22.6187 14.7227C22.4808 14.5799 22.264 14.5593 22.1029 14.6717L21.6079 15.0187C21.3756 15.182 21.0949 15.2086 20.837 15.0924C20.58 14.9766 20.4079 14.745 20.3652 14.4574L20.2704 13.8195C20.2403 13.6145 20.0695 13.4629 19.8689 13.4629H18.7421C18.5473 13.4629 18.3793 13.6065 18.3427 13.8048L18.197 14.59C18.1454 14.8688 17.9701 15.0911 17.7166 15.1997C17.4624 15.3092 17.1874 15.2793 16.96 15.1202L16.3206 14.6722C16.1595 14.5597 15.9427 14.5804 15.8048 14.7231L15.0079 15.5475C14.8655 15.6945 14.8484 15.9265 14.9672 16.0945L15.3362 16.6149C15.5021 16.849 15.5387 17.1383 15.4358 17.4086C15.3333 17.6793 15.1165 17.8658 14.8411 17.9206L14.2537 18.0372C14.0625 18.0751 13.9238 18.2486 13.9238 18.4507V19.617C13.9238 19.8246 14.0703 20.0014 14.2688 20.033L14.885 20.1311C15.1629 20.1753 15.3862 20.3534 15.4985 20.6195C15.6107 20.8861 15.5847 21.1766 15.4273 21.4174L15.0921 21.9298C14.9827 22.0966 15.0034 22.321 15.1413 22.4637L15.9378 23.2886C16.0794 23.4355 16.3035 23.4532 16.4662 23.3307L16.969 22.9488C17.1952 22.7774 17.4754 22.7387 17.7358 22.8456C17.9973 22.9517 18.1775 23.1762 18.2304 23.4612L18.3431 24.0692C18.3797 24.2667 18.5473 24.4103 18.7425 24.4103H19.8693C20.0699 24.4103 20.2407 24.2587 20.2712 24.0532L20.3379 23.6048C20.3806 23.3151 20.5625 23.0759 20.8232 22.9639C21.0852 22.8519 21.3764 22.8886 21.6046 23.0616L21.9581 23.3303C22.1204 23.4536 22.345 23.4355 22.4865 23.2882L23.283 22.4633C23.4209 22.3206 23.4417 22.0966 23.3322 21.9294L22.997 21.417C22.8396 21.1766 22.8136 20.8856 22.9259 20.6191C23.0377 20.353 23.2615 20.1749 23.5393 20.1307L24.1556 20.0326C24.3537 20.001 24.5001 19.8242 24.5001 19.6166V18.4503C24.5001 18.2486 24.3614 18.0751 24.1698 18.0368ZM23.6865 19.2557L23.4152 19.2991C22.8644 19.3867 22.4027 19.7547 22.1802 20.2831C21.9573 20.8119 22.011 21.4124 22.3234 21.8894L22.4703 22.1138L22.1579 22.4372L22.0859 22.3825C21.6262 22.0343 21.0384 21.961 20.512 22.1858C19.9857 22.4115 19.6204 22.8941 19.5337 23.4764L19.5203 23.5682H19.0785L19.0293 23.3016C18.924 22.7349 18.5514 22.2713 18.0331 22.0608C17.5141 21.8503 16.9364 21.9286 16.4874 22.2688L16.2661 22.4368L15.9537 22.1134L16.1005 21.889C16.4129 21.4115 16.4662 20.8111 16.2437 20.2827C16.0212 19.7543 15.5591 19.3863 15.0087 19.2987L14.7374 19.2557V18.7985L14.9949 18.7475C15.5424 18.6385 15.9903 18.2528 16.1937 17.7164C16.397 17.1795 16.3218 16.5816 15.9927 16.1164L15.8304 15.8873L16.1428 15.5639L16.5044 15.8174C16.9552 16.134 17.5259 16.1934 18.0286 15.9778C18.5318 15.7618 18.8939 15.3025 18.9968 14.7488L19.0785 14.305H19.5203L19.5622 14.5858C19.6468 15.1559 20.0023 15.6338 20.5128 15.8642C21.0234 16.0949 21.6038 16.0393 22.0647 15.7159L22.2815 15.5639L22.5939 15.8873L22.4316 16.1164C22.1021 16.5812 22.0273 17.1791 22.2307 17.7164C22.4341 18.2528 22.8823 18.6385 23.4295 18.7475L23.6865 18.7985V19.2557Z" fill="#B50000"/>
<path d="M19.2116 16.832C18.0901 16.832 17.1777 17.7765 17.1777 18.9373C17.1777 20.0981 18.0901 21.0426 19.2116 21.0426C20.3331 21.0426 21.2455 20.0981 21.2455 18.9373C21.2455 17.7765 20.3331 16.832 19.2116 16.832ZM19.2116 20.2005C18.5388 20.2005 17.9913 19.6337 17.9913 18.9373C17.9913 18.2409 18.5388 17.6741 19.2116 17.6741C19.8844 17.6741 20.432 18.2409 20.432 18.9373C20.432 19.6337 19.8844 20.2005 19.2116 20.2005Z" fill="#B50000"/>
<path d="M12.9898 13.5803C12.8962 13.4573 12.5513 12.9857 12.2165 12.2965L12.1978 12.2577C12.1957 12.254 12.1941 12.2497 12.1921 12.246C12.1477 12.1537 12.1042 12.0561 12.0603 11.955L12.0399 11.9074C12.0172 11.854 11.9944 11.7988 11.9716 11.7411C11.9639 11.7213 11.9561 11.7015 11.9484 11.6813C11.9268 11.6257 11.9053 11.5693 11.8821 11.5045C11.8402 11.39 11.802 11.2704 11.7645 11.1478L11.7353 11.0485C11.697 10.918 11.6616 10.7845 11.6307 10.6468C11.6303 10.6438 11.6291 10.6413 11.6287 10.6384L11.6218 10.6076L11.5921 10.4716L11.4529 10.3786C11.217 10.2215 11.0763 9.95795 11.0763 9.67332V7.98911C11.0763 7.7529 11.1731 7.53226 11.3488 7.36805L11.4831 7.243V4.62068V4.47163L11.4721 4.46279C11.4578 4.15921 11.4757 3.227 12.1323 2.45142C12.8063 1.65563 13.9567 1.25226 15.5508 1.25226C17.1393 1.25226 18.2873 1.65268 18.9621 2.443C19.7541 3.36974 19.6235 4.55542 19.6223 4.56553L19.6186 7.243L19.7529 7.36847C19.9286 7.53226 20.0254 7.7529 20.0254 7.98911V9.67332C20.0254 10.0409 19.7932 10.3626 19.447 10.4729C19.2326 10.5411 19.1122 10.7773 19.1785 10.9992C19.2444 11.2211 19.471 11.3449 19.687 11.2771C20.3761 11.0573 20.839 10.4127 20.839 9.67332V7.98911C20.839 7.58363 20.6929 7.19037 20.4322 6.88384V4.64426C20.4554 4.41268 20.5445 3.03416 19.5812 1.89689C18.7457 0.910367 17.3899 0.410156 15.5508 0.410156C13.7118 0.410156 12.356 0.910367 11.5205 1.89647C10.9367 2.58574 10.7407 3.36216 10.6809 3.91963C9.98325 3.54658 9.16197 3.35753 8.22881 3.35753C4.00278 3.35753 3.75708 7.08595 3.75424 7.147V9.075C3.49064 9.37269 3.34746 9.71542 3.34746 10.0561V11.5104C3.34746 11.9647 3.54393 12.3883 3.88075 12.6746C4.21593 13.9841 5.0417 14.9735 5.36305 15.3209V16.4758C5.36305 16.8072 5.18854 17.1112 4.88671 17.2822L2.18122 19.0392C1.14393 19.6245 0.5 20.7474 0.5 21.9693V23.5681H6.19492H7.00847H11.4831C11.708 23.5681 11.8898 23.3799 11.8898 23.147C11.8898 22.9142 11.708 22.726 11.4831 22.726H7.00847V21.7836C7.00847 20.7011 7.57878 19.7062 8.49648 19.1883L12.1262 17.1394C12.7331 16.7963 13.1102 16.1382 13.1102 15.4228V13.7306L13.0158 13.6135C13.0146 13.6127 13.0044 13.5992 12.9898 13.5803ZM12.2966 15.4228C12.2966 15.8304 12.0818 16.2043 11.7365 16.3996L10.6601 17.0072L10.3961 17.1563L8.10719 18.4485C6.92753 19.1146 6.19492 20.3921 6.19492 21.7832V22.726H1.31356V21.9693C1.31356 21.0556 1.79519 20.2161 2.59166 19.766L5.29715 18.0089C5.83939 17.7028 6.1762 17.1158 6.1762 16.4758L6.1758 14.9643L6.04766 14.8392C6.03668 14.8291 4.95424 13.763 4.63654 12.3314L4.59953 12.1647L4.46041 12.0721C4.27288 11.9466 4.16102 11.7365 4.16102 11.5104V10.0561C4.16102 9.9049 4.26027 9.72427 4.43397 9.56174L4.5678 9.43669L4.56698 7.17184C4.57471 7.05058 4.78583 4.19963 8.22881 4.19963C9.20264 4.19963 10.0223 4.43247 10.6695 4.89184V6.88384C10.4087 7.19037 10.2627 7.58363 10.2627 7.98911V9.67332C10.2627 9.97479 10.3485 10.2598 10.4909 10.5121C10.5906 10.6885 10.7134 10.851 10.8717 10.9824C10.8745 10.9933 10.8778 11.0034 10.8806 11.014C10.9042 11.107 10.9286 11.1988 10.9546 11.2872L10.9884 11.4017C10.9949 11.4228 11.0018 11.4447 11.0087 11.4657C11.0222 11.5087 11.0352 11.5512 11.0494 11.5933C11.0738 11.6678 11.0999 11.7445 11.13 11.8278C11.1422 11.8611 11.1552 11.8902 11.1674 11.9226C11.202 12.0144 11.2369 12.1032 11.2736 12.1908C11.2805 12.2072 11.287 12.2262 11.2939 12.2426L11.3183 12.2998C11.3293 12.3255 11.3407 12.3483 11.3521 12.3735C11.3903 12.4598 11.4281 12.5441 11.4668 12.6253C11.4741 12.6405 11.481 12.6577 11.4883 12.6729L11.5188 12.7344C11.5266 12.75 11.5339 12.7622 11.5416 12.7773C11.6075 12.9087 11.6722 13.0316 11.7365 13.1466C11.745 13.1622 11.7536 13.1777 11.7621 13.1933C11.8317 13.3163 11.8984 13.4291 11.9618 13.5306C11.9647 13.5352 11.9679 13.5403 11.9708 13.5453C12.105 13.7596 12.2214 13.9276 12.297 14.03V15.4228H12.2966Z" fill="#B50000"/>
</svg>
