<svg width="121" height="36" viewBox="0 0 121 36" fill="none" xmlns="http://www.w3.org/2000/svg">
<path d="M25.4342 0.0703125H10.2913C4.88371 0.0703125 0.5 4.4965 0.5 9.95647V25.2461C0.5 30.7061 4.88371 35.1323 10.2913 35.1323H25.4342C30.8418 35.1323 35.2255 30.7061 35.2255 25.2461V9.95647C35.2255 4.4965 30.8418 0.0703125 25.4342 0.0703125Z" fill="url(#paint0_linear_502_9017)"/>
<path d="M12.9844 28.0694C15.1189 29.0849 17.5108 29.4111 19.8355 29.0029C22.1602 28.5948 24.3031 27.4706 25.9704 25.7857C27.6392 24.1008 28.7512 21.9372 29.1568 19.5913C29.561 17.2441 29.2393 14.829 28.2322 12.6738L12.9844 28.0694V28.0694Z" fill="white"/>
<path d="M11.1381 26.9736C11.4444 27.1995 11.7606 27.41 12.0879 27.6034L27.7679 11.7715C27.5763 11.441 27.3679 11.1218 27.1427 10.8125L11.1367 26.9736H11.1381Z" fill="white"/>
<path d="M7.99805 23.4687C8.18968 23.7992 8.39809 24.1184 8.62329 24.4277L24.6293 8.26661C24.3229 8.04064 24.0068 7.83021 23.6795 7.63672L7.99805 23.4687Z" fill="white"/>
<path d="M7.53569 22.5686L22.7835 7.17301C20.649 6.15756 18.2572 5.83132 15.9324 6.23947C13.6077 6.64763 11.4648 7.77183 9.79748 9.45671C8.12877 11.1416 7.01675 13.3053 6.61112 15.6511C6.20687 17.9984 6.52859 20.4134 7.53569 22.5686V22.5686Z" fill="white"/>
<path d="M12.732 23.835C12.7586 23.8618 12.788 23.8844 12.8202 23.9028C12.9754 23.989 13.167 23.9621 13.2929 23.835L14.4021 22.7144C14.5266 22.5873 14.5532 22.3937 14.4693 22.2368C14.4511 22.2043 14.4287 22.1733 14.4021 22.1478C14.2469 21.9924 13.9965 21.9924 13.8398 22.1478L12.7306 23.2684C12.5768 23.4252 12.5768 23.6781 12.7306 23.8364L12.732 23.835Z" fill="white"/>
<path d="M15.1383 21.4053C15.1649 21.4321 15.1942 21.4547 15.2264 21.4731C15.3817 21.5593 15.5747 21.531 15.6992 21.4053L16.8084 20.2848C16.9329 20.1576 16.9595 19.964 16.8755 19.8072C16.8574 19.7747 16.835 19.7436 16.8084 19.7181C16.6531 19.5627 16.4028 19.5627 16.2461 19.7181L15.1369 20.8387C14.983 20.9955 14.983 21.2484 15.1369 21.4067L15.1383 21.4053Z" fill="white"/>
<path d="M10.3263 26.2644C10.4005 26.3407 10.5012 26.3831 10.6075 26.3831C10.7138 26.3831 10.8145 26.3407 10.8886 26.2644L11.9978 25.1439C12.1279 24.9842 12.1167 24.7496 11.9713 24.6027C11.8258 24.4557 11.595 24.4444 11.4355 24.5758L10.3263 25.6964C10.1725 25.8532 10.1725 26.1061 10.3263 26.2644V26.2644Z" fill="white"/>
<path d="M17.5406 18.9795C17.5672 19.0064 17.5966 19.029 17.6287 19.0473C17.784 19.1335 17.977 19.1053 18.1015 18.9795L19.2107 17.859C19.3352 17.7318 19.3618 17.5382 19.2779 17.3814C19.2597 17.3489 19.2373 17.3178 19.2107 17.2924C19.0555 17.1369 18.8051 17.1369 18.6484 17.2924L17.5392 18.4129C17.3854 18.5697 17.3854 18.8227 17.5392 18.9809L17.5406 18.9795Z" fill="white"/>
<path d="M22.3512 14.1221C22.3777 14.1489 22.4071 14.1715 22.4393 14.1899C22.5946 14.2761 22.7862 14.2478 22.9121 14.1221L24.0213 13.0016C24.1458 12.8744 24.1724 12.6808 24.0884 12.524C24.0702 12.4915 24.0479 12.4604 24.0213 12.4349C23.866 12.2795 23.6156 12.2795 23.459 12.4349L22.3498 13.5555C22.1959 13.7123 22.1959 13.9652 22.3498 14.1235L22.3512 14.1221Z" fill="white"/>
<path d="M24.7521 11.696C24.8263 11.7723 24.927 11.8147 25.0333 11.8147C25.1396 11.8147 25.2403 11.7723 25.3144 11.696L26.4236 10.5755C26.5537 10.4158 26.5425 10.1813 26.3971 10.0343C26.2516 9.88736 26.0208 9.87606 25.8613 10.0075L24.7521 11.128C24.5983 11.2848 24.5983 11.5378 24.7521 11.696V11.696Z" fill="white"/>
<path d="M19.9449 16.5518C19.9715 16.5786 20.0009 16.6012 20.033 16.6196C20.1883 16.7058 20.3799 16.6789 20.5058 16.5518L21.615 15.4312C21.7395 15.3041 21.7661 15.1105 21.6822 14.9536C21.664 14.9211 21.6416 14.8901 21.615 14.8646C21.4598 14.7092 21.2094 14.7092 21.0527 14.8646L19.9435 15.9851C19.7897 16.142 19.7897 16.3949 19.9435 16.5532L19.9449 16.5518Z" fill="white"/>
<path d="M9.25696 25.1636C9.3171 25.2752 9.42621 25.3501 9.5507 25.3684C9.67519 25.3854 9.79968 25.343 9.8892 25.254L10.9984 24.1335C11.0851 24.0614 11.1383 23.9554 11.1439 23.841C11.1495 23.7279 11.1075 23.6163 11.0278 23.5358C10.9481 23.4552 10.839 23.4128 10.7257 23.4185C10.6138 23.4241 10.5088 23.4778 10.4361 23.5654L9.3269 24.686C9.20101 24.8117 9.17303 25.0067 9.25696 25.1636V25.1636Z" fill="white"/>
<path d="M16.4709 17.8756C16.4891 17.9081 16.5115 17.9392 16.5381 17.9646C16.6934 18.12 16.9437 18.12 17.1004 17.9646L18.2096 16.8441C18.3635 16.6872 18.3635 16.4343 18.2096 16.276C18.183 16.2492 18.1537 16.2266 18.1215 16.2082C17.9662 16.122 17.7732 16.1489 17.6487 16.276L16.5395 17.3966C16.415 17.5237 16.3884 17.7173 16.4723 17.8742L16.4709 17.8756Z" fill="white"/>
<path d="M11.6624 22.735C11.6805 22.7675 11.7029 22.7986 11.7295 22.824C11.8848 22.9794 12.1351 22.9794 12.2918 22.824L13.401 21.7035C13.5549 21.5466 13.5549 21.2937 13.401 21.1354C13.3744 21.1086 13.3451 21.086 13.3129 21.0676C13.1576 20.9814 12.966 21.0083 12.8401 21.1354L11.7309 22.256C11.6064 22.3831 11.5798 22.5767 11.6638 22.7336L11.6624 22.735Z" fill="white"/>
<path d="M14.0647 20.3029C14.0829 20.3354 14.1053 20.3665 14.1318 20.392C14.2871 20.5474 14.5375 20.5474 14.6941 20.392L15.8034 19.2714C15.9572 19.1146 15.9572 18.8616 15.8034 18.7034C15.7768 18.6765 15.7474 18.6539 15.7152 18.6356C15.56 18.5494 15.3683 18.5776 15.2425 18.7034L14.1332 19.8239C14.0087 19.9511 13.9822 20.1447 14.0661 20.3015L14.0647 20.3029Z" fill="white"/>
<path d="M23.6866 10.5913C23.7468 10.7029 23.8559 10.7778 23.9804 10.7962C24.1049 10.8131 24.2294 10.7707 24.3189 10.6817L25.4281 9.56119C25.5148 9.48913 25.568 9.38315 25.5736 9.2687C25.5792 9.15566 25.5372 9.04403 25.4575 8.96349C25.3777 8.88294 25.2686 8.84055 25.1553 8.8462C25.0434 8.85186 24.9385 8.90555 24.8658 8.99316L23.7566 10.1137C23.6307 10.2394 23.6027 10.4344 23.6866 10.5913V10.5913Z" fill="white"/>
<path d="M21.2834 13.0217C21.3016 13.0542 21.324 13.0853 21.3506 13.1107C21.5059 13.2661 21.7562 13.2661 21.9129 13.1107L23.0221 11.9902C23.176 11.8333 23.176 11.5804 23.0221 11.4221C22.9955 11.3953 22.9662 11.3727 22.934 11.3543C22.7787 11.2681 22.5871 11.2964 22.4612 11.4221L21.352 12.5427C21.2275 12.6698 21.2009 12.8634 21.2848 13.0203L21.2834 13.0217Z" fill="white"/>
<path d="M18.8772 15.4498C18.8954 15.4823 18.9178 15.5134 18.9443 15.5388C19.0996 15.6943 19.35 15.6943 19.5066 15.5388L20.6159 14.4183C20.7697 14.2615 20.7697 14.0085 20.6159 13.8503C20.5893 13.8234 20.5599 13.8008 20.5277 13.7824C20.3725 13.6962 20.1808 13.7231 20.055 13.8503L18.9457 14.9708C18.8212 15.098 18.7947 15.2916 18.8786 15.4484L18.8772 15.4498Z" fill="white"/>
<path fill-rule="evenodd" clip-rule="evenodd" d="M61.5489 20.6692V11.2251H64.394V20.6692H61.5489ZM62.9714 10.1574C62.521 10.1574 62.1322 9.99218 61.8049 9.66029C61.4762 9.32839 61.3125 8.93577 61.3125 8.48242C61.3125 8.02907 61.4762 7.63504 61.8049 7.30456C62.1336 6.96136 62.5224 6.78906 62.9714 6.78906C63.4204 6.78906 63.8107 6.96136 64.138 7.30456C64.4667 7.63645 64.6304 8.02907 64.6304 8.48242C64.6304 8.93577 64.4667 9.32981 64.138 9.66029C63.8093 9.99218 63.4204 10.1574 62.9714 10.1574ZM48.418 20.1538C49.2559 20.4857 50.1986 20.6566 51.2435 20.6693H53.213V18.0919H51.3162C50.7456 18.0792 50.2224 17.9747 49.7482 17.7783C49.2867 17.5806 48.8852 17.3109 48.5453 16.9677C48.218 16.6245 47.962 16.2192 47.7802 15.7531C47.6109 15.287 47.5256 14.7772 47.5256 14.225C47.5256 13.6728 47.6095 13.1629 47.7802 12.6969C47.962 12.2308 48.2166 11.8255 48.5453 11.4823C48.8852 11.1377 49.2867 10.8679 49.7482 10.6716C50.2224 10.4753 50.7456 10.3708 51.3162 10.3581H53.213V7.78061H51.2435C50.1986 7.79332 49.2573 7.96421 48.418 8.2961C47.5914 8.62799 46.8808 9.08276 46.2849 9.65898C45.7002 10.2366 45.2512 10.9173 44.9351 11.7026C44.619 12.4765 44.4609 13.3169 44.4609 14.225C44.4609 15.1331 44.619 15.9805 44.9351 16.7657C45.2512 17.5397 45.7016 18.2147 46.2849 18.791C46.8682 19.3686 47.5788 19.822 48.418 20.1538ZM54.8164 14.0042V20.6675H57.6419V14.1878C57.6419 14.0028 57.702 13.8559 57.8237 13.7458C57.9454 13.6229 58.0909 13.5622 58.2615 13.5622H60.2855V11.2432H57.5692C56.7061 11.2432 56.0319 11.4875 55.5452 11.979C55.0598 12.4705 54.8164 13.1455 54.8164 14.0042ZM68.4696 20.0619C69.2235 20.4673 70.0865 20.6692 71.0587 20.6692V20.672H72.463V18.2782H71.1678C70.6936 18.2782 70.2866 18.1793 69.9467 17.983C69.6054 17.774 69.3382 17.4972 69.1438 17.154C68.9605 16.7981 68.8696 16.3998 68.8696 15.9577C68.8696 15.5157 68.9619 15.1231 69.1438 14.7799C69.3396 14.424 69.6068 14.1472 69.9467 13.9509C70.2866 13.7418 70.6936 13.6373 71.1678 13.6373H72.463V11.2251H71.0587C70.0865 11.2251 69.2235 11.4341 68.4696 11.8508C67.717 12.2674 67.1212 12.8323 66.6834 13.5441C66.2456 14.2446 66.0273 15.0482 66.0273 15.9563C66.0273 16.8644 66.2456 17.6751 66.6834 18.3869C67.1198 19.086 67.7156 19.6453 68.4696 20.0619ZM72.9743 20.6694L77.1132 9.27343C77.3202 8.70851 77.6601 8.28481 78.1343 8.00376C78.6084 7.70859 79.1428 7.56171 79.7386 7.56171C80.3345 7.56171 80.8688 7.70294 81.343 7.9854C81.8172 8.25515 82.1571 8.67885 82.3641 9.25507L86.5212 20.6694H83.2215L82.4187 18.1837H77.0027L76.1634 20.6694H72.9743ZM77.7902 15.6246H81.6354L80.0128 10.488C79.989 10.4146 79.9526 10.3651 79.9037 10.3411C79.8673 10.3044 79.8184 10.2861 79.7582 10.2861C79.6981 10.2861 79.6421 10.3044 79.5946 10.3411C79.5582 10.3779 79.5344 10.4273 79.5218 10.488L77.7902 15.6246ZM90.0442 20.5227C90.6764 20.7684 91.3814 20.8913 92.1591 20.8913V20.8899C93.1802 20.8899 94.0614 20.6809 94.8027 20.2642C95.5553 19.8476 96.1399 19.2516 96.5526 18.4791C96.9652 17.7065 97.1722 16.8041 97.1722 15.7731V7.23145H94.3467V12.2564H94.2922C94.1103 11.9994 93.8795 11.7777 93.5998 11.5941C93.3326 11.3978 93.0277 11.2509 92.6878 11.152C92.3591 11.0546 92.0066 11.0051 91.6303 11.0051C90.7547 11.0051 89.977 11.2071 89.2958 11.6124C88.6272 12.0178 88.0985 12.5756 87.7096 13.2874C87.3334 13.9992 87.1445 14.8339 87.1445 15.7915C87.1445 16.5273 87.2606 17.2094 87.4914 17.8351C87.7222 18.4607 88.0509 19.0073 88.4761 19.4733C88.9014 19.9281 89.4245 20.2769 90.0442 20.5227ZM93.2893 18.1105C92.9731 18.3195 92.5969 18.424 92.1591 18.424C91.7338 18.424 91.3576 18.3195 91.0289 18.1105C90.7016 17.8887 90.4526 17.595 90.2819 17.2264C90.1127 16.8464 90.0274 16.4228 90.0274 15.9567C90.0274 15.4906 90.1113 15.074 90.2819 14.7054C90.4512 14.3368 90.7002 14.0487 91.0289 13.8396C91.3562 13.6179 91.7213 13.5077 92.1591 13.5077C92.5969 13.5077 92.9731 13.6193 93.2893 13.8396C93.6166 14.0487 93.8656 14.3368 94.0362 14.7054C94.2054 15.0726 94.2908 15.4906 94.2908 15.9567C94.2908 16.4228 94.2068 16.8464 94.0362 17.2264C93.867 17.595 93.618 17.8901 93.2893 18.1105ZM103.786 20.891C103.009 20.891 102.304 20.7682 101.671 20.5224C101.052 20.2767 100.529 19.9279 100.103 19.4731C99.6781 19.007 99.3494 18.4605 99.1186 17.8348C98.8878 17.2092 98.7717 16.527 98.7717 15.7912C98.7717 14.8337 98.9605 13.999 99.3368 13.2872C99.7256 12.5754 100.254 12.0175 100.923 11.6122C101.603 11.2068 102.382 11.0049 103.257 11.0049C103.634 11.0049 103.986 11.0543 104.315 11.1518C104.655 11.2506 104.958 11.3975 105.227 11.5938C105.507 11.7774 105.737 11.9992 105.919 12.2562H105.974V7.2312H108.799V15.7728C108.799 16.8038 108.592 17.7063 108.18 18.4788C107.766 19.2514 107.182 19.8474 106.43 20.264C105.689 20.6806 104.807 20.8896 103.786 20.8896V20.891ZM103.786 18.4237C104.224 18.4237 104.6 18.3192 104.916 18.1102C105.245 17.8899 105.494 17.5947 105.663 17.2261C105.833 16.8462 105.918 16.4225 105.918 15.9564C105.918 15.4904 105.833 15.0723 105.663 14.7051C105.493 14.3365 105.244 14.0484 104.916 13.8394C104.6 13.6191 104.224 13.5075 103.786 13.5075C103.348 13.5075 102.983 13.6177 102.656 13.8394C102.327 14.0484 102.078 14.3365 101.909 14.7051C101.738 15.0737 101.655 15.4904 101.655 15.9564C101.655 16.4225 101.74 16.8462 101.909 17.2261C102.078 17.5947 102.329 17.8885 102.656 18.1102C102.985 18.3192 103.361 18.4237 103.786 18.4237ZM112.404 20.2476C113.036 20.6768 113.765 20.8915 114.591 20.8916C114.591 20.8916 114.591 20.8916 114.591 20.8916H114.592C114.592 20.8916 114.591 20.8916 114.591 20.8916C115.114 20.8915 115.564 20.8181 115.94 20.6713C116.329 20.5244 116.658 20.321 116.925 20.064C117.192 19.7942 117.412 19.4934 117.581 19.1615H117.654V20.6713H120.425V15.9768C120.425 15.0432 120.225 14.2029 119.823 13.4544C119.434 12.6945 118.869 12.0986 118.128 11.6692C117.399 11.2272 116.498 11.0068 115.466 11.0068C114.434 11.0068 113.533 11.2272 112.768 11.6692C112.015 12.1098 111.432 12.7115 111.018 13.4727C110.605 14.2213 110.398 15.111 110.398 16.0318C110.398 16.9527 110.575 17.7817 110.927 18.5175C111.28 19.2406 111.772 19.8182 112.404 20.2476ZM116.543 18.1107C116.227 18.3198 115.856 18.4243 115.431 18.4243C114.993 18.4243 114.611 18.3198 114.283 18.1107C113.955 17.889 113.706 17.5882 113.536 17.2083C113.367 16.8284 113.281 16.392 113.281 15.9386C113.281 15.4853 113.367 15.0743 113.536 14.7057C113.705 14.3371 113.954 14.0489 114.283 13.8399C114.61 13.6182 115.006 13.508 115.431 13.508C115.856 13.508 116.227 13.6196 116.543 13.8399C116.87 14.0489 117.121 14.3371 117.29 14.7057C117.459 15.0729 117.545 15.4726 117.545 15.9386C117.545 16.4047 117.461 16.8284 117.29 17.2083C117.121 17.5896 116.872 17.8904 116.543 18.1107Z" fill="url(#paint1_linear_502_9017)"/>
<path d="M45.8027 25.0793L45.7868 24.5764H47.2282C47.2423 24.6006 47.2564 24.6352 47.2704 24.6801C47.2845 24.7216 47.2916 24.7665 47.2916 24.8149C47.2916 24.9013 47.2704 24.967 47.2282 25.0119C47.1895 25.0569 47.1349 25.0793 47.0645 25.0793H45.8027ZM46.1934 24.5764L46.2092 25.0793H44.7679C44.7503 25.0551 44.7344 25.0223 44.7203 24.9808C44.7063 24.9359 44.6992 24.8875 44.6992 24.8357C44.6992 24.7492 44.7186 24.6853 44.7573 24.6438C44.7995 24.5989 44.8559 24.5764 44.9262 24.5764H46.1934ZM45.676 24.9394H46.3043V27.7132C46.2796 27.7236 46.2391 27.7322 46.1828 27.7391C46.13 27.7495 46.0737 27.7547 46.0139 27.7547C45.8942 27.7547 45.808 27.7339 45.7552 27.6924C45.7024 27.6475 45.676 27.5732 45.676 27.4695V24.9394Z" fill="black"/>
<path d="M51.003 26.6814H50.3905V26.2096C50.3905 26.0264 50.3412 25.8933 50.2427 25.8104C50.1441 25.7274 50.0174 25.686 49.8625 25.686C49.7393 25.686 49.625 25.7102 49.5194 25.7585C49.4173 25.8035 49.3293 25.8571 49.2554 25.9193L49.2079 25.4319C49.2923 25.3801 49.3979 25.3299 49.5246 25.2815C49.6549 25.2332 49.8009 25.209 49.9629 25.209C50.2761 25.209 50.5278 25.2902 50.7179 25.4526C50.9079 25.6116 51.003 25.8553 51.003 26.1837V26.6814ZM48.7327 26.3548H49.3451V27.7132C49.317 27.7236 49.2782 27.7322 49.229 27.7391C49.1797 27.7495 49.1251 27.7547 49.0653 27.7547C48.9527 27.7547 48.8682 27.7339 48.8119 27.6924C48.7591 27.651 48.7327 27.5801 48.7327 27.4799V26.3548ZM50.3905 26.36H51.003V27.7132C50.9783 27.7236 50.9396 27.7322 50.8868 27.7391C50.8375 27.7495 50.7847 27.7547 50.7284 27.7547C50.6123 27.7547 50.526 27.7339 50.4697 27.6924C50.4169 27.651 50.3905 27.5801 50.3905 27.4799V26.36ZM49.3451 26.6607H48.7327V24.3535C48.7573 24.3466 48.7943 24.3397 48.8436 24.3327C48.8963 24.3224 48.9527 24.3172 49.0125 24.3172C49.1287 24.3172 49.2131 24.3379 49.2659 24.3794C49.3187 24.4174 49.3451 24.4883 49.3451 24.592V26.6607Z" fill="black"/>
<path d="M52.9314 26.8162L52.905 26.3911L54.3516 26.1837C54.3411 26.042 54.2865 25.921 54.1879 25.8208C54.0894 25.7171 53.9504 25.6652 53.7708 25.6652C53.5843 25.6652 53.4294 25.7292 53.3062 25.8571C53.183 25.9849 53.1197 26.1681 53.1162 26.4066L53.132 26.6503C53.1602 26.8819 53.2464 27.053 53.3907 27.1636C53.5385 27.2742 53.7269 27.3295 53.9556 27.3295C54.1035 27.3295 54.239 27.307 54.3622 27.2621C54.4889 27.2172 54.5892 27.1688 54.6631 27.1169C54.7089 27.148 54.7458 27.1861 54.774 27.231C54.8057 27.2725 54.8215 27.3209 54.8215 27.3762C54.8215 27.4591 54.781 27.5334 54.7001 27.5991C54.6226 27.6613 54.5153 27.7097 54.378 27.7443C54.2443 27.7789 54.0912 27.7961 53.9187 27.7961C53.6441 27.7961 53.403 27.7477 53.1954 27.651C52.9912 27.5507 52.8311 27.4021 52.7149 27.2051C52.5987 27.0081 52.5407 26.7661 52.5407 26.4792C52.5407 26.2684 52.5724 26.0835 52.6357 25.9245C52.7026 25.7655 52.7923 25.6341 52.905 25.5304C53.0176 25.4233 53.1478 25.3438 53.2957 25.2919C53.447 25.2366 53.6054 25.209 53.7708 25.209C53.9996 25.209 54.2003 25.2556 54.3727 25.3489C54.5487 25.4388 54.6842 25.565 54.7793 25.7274C54.8778 25.8899 54.9271 26.0748 54.9271 26.2822C54.9271 26.3755 54.9025 26.4447 54.8532 26.4896C54.8074 26.5345 54.7423 26.5622 54.6578 26.5725L52.9314 26.8162Z" fill="black"/>
<path d="M60.1417 27.8013C59.8671 27.8013 59.6313 27.7529 59.4342 27.6562C59.2371 27.5559 59.0857 27.4159 58.9801 27.2362C58.878 27.0565 58.827 26.8473 58.827 26.6088V26.2304H59.45V26.5829C59.45 26.8145 59.5151 26.9908 59.6454 27.1118C59.7791 27.2327 59.9445 27.2932 60.1417 27.2932C60.3423 27.2932 60.5077 27.2327 60.6379 27.1118C60.7682 26.9908 60.8333 26.8145 60.8333 26.5829V26.2304H61.4616V26.6088C61.4616 26.8473 61.4088 27.0565 61.3032 27.2362C61.2011 27.4159 61.0515 27.5559 60.8544 27.6562C60.6573 27.7529 60.4197 27.8013 60.1417 27.8013ZM59.45 26.4118H58.827V24.5764C58.8516 24.5695 58.8921 24.5609 58.9484 24.5505C59.0047 24.5401 59.0611 24.5349 59.1174 24.5349C59.2335 24.5349 59.318 24.5557 59.3708 24.5972C59.4236 24.6386 59.45 24.7147 59.45 24.8253V26.4118ZM61.4616 26.417H60.8333V24.5764C60.8615 24.5695 60.9019 24.5609 60.9547 24.5505C61.011 24.5401 61.0674 24.5349 61.1237 24.5349C61.2434 24.5349 61.3296 24.5557 61.3824 24.5972C61.4352 24.6386 61.4616 24.7147 61.4616 24.8253V26.417Z" fill="black"/>
<path d="M65.4434 26.1267V26.6348H64.8309V26.1474C64.8309 25.9884 64.7834 25.8726 64.6884 25.8C64.5968 25.724 64.4754 25.686 64.3241 25.686C64.2114 25.686 64.1093 25.6998 64.0178 25.7274C63.9263 25.7551 63.8471 25.7879 63.7802 25.8259V26.6348H63.1678V25.7948C63.1678 25.7119 63.1836 25.6445 63.2153 25.5926C63.2505 25.5408 63.3051 25.4924 63.379 25.4475C63.4811 25.3818 63.6131 25.3265 63.775 25.2815C63.9404 25.2332 64.1234 25.209 64.3241 25.209C64.676 25.209 64.9506 25.2867 65.1477 25.4423C65.3448 25.5944 65.4434 25.8225 65.4434 26.1267ZM63.1678 26.3755H63.7802V27.7132C63.7521 27.7236 63.7134 27.7322 63.6641 27.7391C63.6148 27.7495 63.5603 27.7547 63.5004 27.7547C63.3878 27.7547 63.3033 27.7339 63.247 27.6924C63.1942 27.651 63.1678 27.5801 63.1678 27.4799V26.3755ZM64.8309 26.3755H65.4434V27.7132C65.4187 27.7236 65.38 27.7322 65.3272 27.7391C65.2779 27.7495 65.2234 27.7547 65.1635 27.7547C65.0509 27.7547 64.9664 27.7339 64.9101 27.6924C64.8573 27.651 64.8309 27.5801 64.8309 27.4799V26.3755Z" fill="black"/>
<path d="M67.0711 24.5453C67.0711 24.4485 67.1045 24.3673 67.1714 24.3016C67.2418 24.236 67.328 24.2031 67.4301 24.2031C67.5392 24.2031 67.6254 24.236 67.6888 24.3016C67.7557 24.3673 67.7891 24.4485 67.7891 24.5453C67.7891 24.6386 67.7557 24.7199 67.6888 24.789C67.6254 24.8547 67.5392 24.8875 67.4301 24.8875C67.328 24.8875 67.2418 24.8547 67.1714 24.789C67.1045 24.7199 67.0711 24.6386 67.0711 24.5453ZM67.1239 26.3548H67.7363V27.7132C67.7117 27.7236 67.6747 27.7322 67.6254 27.7391C67.5762 27.7495 67.5216 27.7547 67.4618 27.7547C67.3491 27.7547 67.2647 27.7339 67.2083 27.6924C67.152 27.651 67.1239 27.5801 67.1239 27.4799V26.3548ZM67.7363 26.6607H67.1239V25.2971C67.152 25.2902 67.1907 25.2833 67.24 25.2764C67.2928 25.266 67.3491 25.2608 67.409 25.2608C67.5216 25.2608 67.6043 25.2815 67.6571 25.323C67.7099 25.361 67.7363 25.4336 67.7363 25.5408V26.6607Z" fill="black"/>
<path d="M71.33 25.2297C71.4145 25.2297 71.4849 25.2504 71.5412 25.2919C71.5975 25.3299 71.6257 25.3922 71.6257 25.4786C71.6257 25.5304 71.6063 25.622 71.5676 25.7534C71.5324 25.8812 71.4831 26.0316 71.4197 26.2044C71.3599 26.3738 71.293 26.5518 71.2191 26.7385C71.1487 26.9216 71.0766 27.0962 71.0026 27.2621C70.9287 27.428 70.8601 27.568 70.7967 27.6821C70.7686 27.7028 70.7211 27.7218 70.6542 27.7391C70.5908 27.7564 70.5204 27.765 70.443 27.765C70.3515 27.765 70.2723 27.7512 70.2054 27.7236C70.1385 27.6994 70.091 27.6613 70.0629 27.6095C70.0241 27.5404 69.9749 27.4401 69.915 27.3088C69.8587 27.174 69.7971 27.0236 69.7302 26.8577C69.6634 26.6883 69.5965 26.5138 69.5296 26.334C69.4627 26.1509 69.4011 25.9763 69.3448 25.8104C69.2885 25.6445 69.2427 25.4976 69.2075 25.3697C69.2427 25.3317 69.2885 25.2988 69.3448 25.2712C69.4046 25.2435 69.4662 25.2297 69.5296 25.2297C69.6176 25.2297 69.688 25.2487 69.7408 25.2867C69.7971 25.3248 69.8393 25.3939 69.8675 25.4941L70.1473 26.3703C70.1755 26.4568 70.2072 26.5535 70.2424 26.6607C70.2811 26.7678 70.318 26.8715 70.3532 26.9718C70.3884 27.072 70.4166 27.155 70.4377 27.2206H70.4588C70.5715 26.9096 70.6788 26.5898 70.7809 26.2615C70.8865 25.9296 70.9762 25.6065 71.0502 25.2919C71.1311 25.2504 71.2244 25.2297 71.33 25.2297Z" fill="black"/>
<path d="M73.3238 26.8162L73.2974 26.3911L74.744 26.1837C74.7335 26.042 74.6789 25.921 74.5804 25.8208C74.4818 25.7171 74.3428 25.6652 74.1633 25.6652C73.9767 25.6652 73.8218 25.7292 73.6986 25.8571C73.5754 25.9849 73.5121 26.1681 73.5086 26.4066L73.5244 26.6503C73.5526 26.8819 73.6388 27.053 73.7831 27.1636C73.9309 27.2742 74.1193 27.3295 74.348 27.3295C74.4959 27.3295 74.6314 27.307 74.7546 27.2621C74.8813 27.2172 74.9816 27.1688 75.0555 27.1169C75.1013 27.148 75.1382 27.1861 75.1664 27.231C75.1981 27.2725 75.2139 27.3209 75.2139 27.3762C75.2139 27.4591 75.1734 27.5334 75.0925 27.5991C75.0151 27.6613 74.9077 27.7097 74.7704 27.7443C74.6367 27.7789 74.4836 27.7961 74.3111 27.7961C74.0365 27.7961 73.7954 27.7477 73.5878 27.651C73.3836 27.5507 73.2235 27.4021 73.1073 27.2051C72.9912 27.0081 72.9331 26.7661 72.9331 26.4792C72.9331 26.2684 72.9648 26.0835 73.0281 25.9245C73.095 25.7655 73.1847 25.6341 73.2974 25.5304C73.41 25.4233 73.5402 25.3438 73.6881 25.2919C73.8394 25.2366 73.9978 25.209 74.1633 25.209C74.392 25.209 74.5927 25.2556 74.7651 25.3489C74.9411 25.4388 75.0766 25.565 75.1717 25.7274C75.2702 25.8899 75.3195 26.0748 75.3195 26.2822C75.3195 26.3755 75.2949 26.4447 75.2456 26.4896C75.1998 26.5345 75.1347 26.5622 75.0503 26.5725L73.3238 26.8162Z" fill="black"/>
<path d="M77.4371 25.8415V26.5725H76.8246V25.8052C76.8246 25.7188 76.844 25.6479 76.8827 25.5926C76.9214 25.5339 76.9795 25.4786 77.0569 25.4267C77.1625 25.3645 77.2963 25.3127 77.4582 25.2712C77.6201 25.2297 77.7943 25.209 77.9809 25.209C78.3012 25.209 78.4613 25.304 78.4613 25.4941C78.4613 25.5391 78.4543 25.5823 78.4402 25.6237C78.4296 25.6618 78.4138 25.6946 78.3927 25.7222C78.3575 25.7153 78.3117 25.7084 78.2554 25.7015C78.2026 25.6946 78.1481 25.6911 78.0917 25.6911C77.958 25.6911 77.8348 25.7067 77.7222 25.7378C77.6095 25.7655 77.5145 25.8 77.4371 25.8415ZM76.8246 26.3548L77.4371 26.3911V27.7132C77.4089 27.7236 77.3702 27.7322 77.3209 27.7391C77.2716 27.7495 77.2171 27.7547 77.1572 27.7547C77.0446 27.7547 76.9601 27.7339 76.9038 27.6924C76.851 27.651 76.8246 27.5801 76.8246 27.4799V26.3548Z" fill="black"/>
<path d="M81.7578 27.0392C81.7578 27.2777 81.6681 27.4643 81.4886 27.5991C81.3091 27.7339 81.0486 27.8013 80.7072 27.8013C80.4256 27.8013 80.195 27.7598 80.0155 27.6769C79.8395 27.5939 79.7515 27.4868 79.7515 27.3554C79.7515 27.2967 79.7656 27.2448 79.7938 27.1999C79.8219 27.1515 79.8589 27.1135 79.9047 27.0858C80.0032 27.148 80.1158 27.2051 80.2426 27.2569C80.3728 27.3053 80.5206 27.3295 80.6861 27.3295C80.9958 27.3295 81.1507 27.2345 81.1507 27.0444C81.1507 26.9649 81.1243 26.9009 81.0715 26.8525C81.0187 26.8007 80.936 26.7627 80.8233 26.7385L80.496 26.6607C80.2461 26.6054 80.0613 26.519 79.9416 26.4014C79.8219 26.2839 79.7621 26.1301 79.7621 25.94C79.7621 25.7292 79.8501 25.5546 80.0261 25.4164C80.2056 25.2746 80.4573 25.2038 80.7811 25.2038C80.9465 25.2038 81.0944 25.2211 81.2246 25.2556C81.3583 25.2867 81.4622 25.3334 81.5361 25.3956C81.61 25.4544 81.647 25.5252 81.647 25.6082C81.647 25.6635 81.6346 25.7136 81.61 25.7585C81.5854 25.8035 81.5519 25.838 81.5097 25.8622C81.4675 25.838 81.4094 25.8121 81.3355 25.7845C81.2651 25.7534 81.1841 25.7274 81.0926 25.7067C81.0046 25.686 80.9131 25.6756 80.8181 25.6756C80.6808 25.6756 80.5699 25.6981 80.4854 25.743C80.4045 25.7879 80.364 25.8536 80.364 25.94C80.364 26.0022 80.3869 26.0558 80.4326 26.1007C80.4819 26.1422 80.5611 26.1768 80.6702 26.2044L80.9553 26.2718C81.2334 26.334 81.4358 26.4274 81.5625 26.5518C81.6927 26.6762 81.7578 26.8387 81.7578 27.0392Z" fill="black"/>
<path d="M83.5664 26.8162L83.54 26.3911L84.9866 26.1837C84.9761 26.042 84.9215 25.921 84.823 25.8208C84.7244 25.7171 84.5854 25.6652 84.4059 25.6652C84.2193 25.6652 84.0644 25.7292 83.9412 25.8571C83.8181 25.9849 83.7547 26.1681 83.7512 26.4066L83.767 26.6503C83.7952 26.8819 83.8814 27.053 84.0257 27.1636C84.1736 27.2742 84.3619 27.3295 84.5907 27.3295C84.7385 27.3295 84.874 27.307 84.9972 27.2621C85.1239 27.2172 85.2242 27.1688 85.2981 27.1169C85.3439 27.148 85.3809 27.1861 85.409 27.231C85.4407 27.2725 85.4565 27.3209 85.4565 27.3762C85.4565 27.4591 85.4161 27.5334 85.3351 27.5991C85.2577 27.6613 85.1503 27.7097 85.013 27.7443C84.8793 27.7789 84.7262 27.7961 84.5537 27.7961C84.2792 27.7961 84.038 27.7477 83.8304 27.651C83.6262 27.5507 83.4661 27.4021 83.3499 27.2051C83.2338 27.0081 83.1757 26.7661 83.1757 26.4792C83.1757 26.2684 83.2074 26.0835 83.2707 25.9245C83.3376 25.7655 83.4274 25.6341 83.54 25.5304C83.6526 25.4233 83.7829 25.3438 83.9307 25.2919C84.082 25.2366 84.2404 25.209 84.4059 25.209C84.6347 25.209 84.8353 25.2556 85.0078 25.3489C85.1837 25.4388 85.3193 25.565 85.4143 25.7274C85.5128 25.8899 85.5621 26.0748 85.5621 26.2822C85.5621 26.3755 85.5375 26.4447 85.4882 26.4896C85.4425 26.5345 85.3773 26.5622 85.2929 26.5725L83.5664 26.8162Z" fill="black"/>
<path d="M91.8168 26.5C91.8168 26.7661 91.764 26.996 91.6584 27.1895C91.5563 27.3831 91.4102 27.5334 91.2202 27.6406C91.0301 27.7443 90.8048 27.7961 90.5444 27.7961C90.2874 27.7961 90.0621 27.7443 89.8686 27.6406C89.6785 27.5334 89.5306 27.3831 89.4251 27.1895C89.323 26.996 89.2719 26.7661 89.2719 26.5C89.2719 26.2338 89.3247 26.0057 89.4303 25.8156C89.5359 25.622 89.6838 25.4734 89.8738 25.3697C90.0674 25.2625 90.2927 25.209 90.5496 25.209C90.8031 25.209 91.0248 25.2625 91.2149 25.3697C91.405 25.4734 91.5528 25.622 91.6584 25.8156C91.764 26.0091 91.8168 26.2373 91.8168 26.5ZM90.5444 25.686C90.3472 25.686 90.1906 25.7585 90.0745 25.9037C89.9583 26.0454 89.9002 26.2442 89.9002 26.5C89.9002 26.7592 89.9565 26.9597 90.0692 27.1014C90.1818 27.2431 90.3402 27.314 90.5444 27.314C90.7485 27.314 90.9069 27.2431 91.0195 27.1014C91.1357 26.9562 91.1938 26.7557 91.1938 26.5C91.1938 26.2476 91.1357 26.0489 91.0195 25.9037C90.9069 25.7585 90.7485 25.686 90.5444 25.686Z" fill="black"/>
<path d="M93.8507 25.9089V25.4371H94.9224C94.9365 25.4613 94.9506 25.4941 94.9647 25.5356C94.9788 25.5736 94.9858 25.6186 94.9858 25.6704C94.9858 25.7534 94.9664 25.8138 94.9277 25.8519C94.889 25.8899 94.8362 25.9089 94.7693 25.9089H93.8507ZM93.951 25.1779V25.8363H93.3596V25.1519C93.3596 24.9342 93.4036 24.7579 93.4916 24.6231C93.5796 24.4883 93.7011 24.3898 93.8559 24.3276C94.0143 24.2619 94.1956 24.229 94.3997 24.229C94.6215 24.229 94.7904 24.2584 94.9066 24.3172C95.0263 24.3759 95.0861 24.4606 95.0861 24.5712C95.0861 24.6231 95.0756 24.6698 95.0544 24.7112C95.0333 24.7492 95.0069 24.7821 94.9752 24.8097C94.9119 24.7821 94.8362 24.7596 94.7482 24.7423C94.6637 24.7251 94.5757 24.7164 94.4842 24.7164C94.2977 24.7164 94.1622 24.7527 94.0777 24.8253C93.9932 24.8944 93.951 25.0119 93.951 25.1779ZM93.3596 25.6445H93.9721V27.7132C93.9439 27.7236 93.9052 27.7322 93.8559 27.7391C93.8067 27.7495 93.7521 27.7547 93.6923 27.7547C93.5796 27.7547 93.4952 27.7339 93.4388 27.6924C93.386 27.651 93.3596 27.5801 93.3596 27.4799V25.6445Z" fill="black"/>
<path d="M101.293 24.9653C101.293 25.0275 101.275 25.0828 101.24 25.1312C101.205 25.1796 101.162 25.2176 101.113 25.2453C101.025 25.183 100.923 25.1277 100.807 25.0793C100.691 25.0275 100.545 25.0016 100.369 25.0016C100.168 25.0016 99.992 25.0465 99.8407 25.1364C99.6893 25.2228 99.5697 25.3524 99.4817 25.5252C99.3972 25.6946 99.355 25.9037 99.355 26.1526C99.355 26.5293 99.45 26.8145 99.6401 27.0081C99.8301 27.1982 100.084 27.2932 100.4 27.2932C100.566 27.2932 100.71 27.2708 100.833 27.2258C100.956 27.1774 101.062 27.1239 101.15 27.0651C101.196 27.0927 101.235 27.1325 101.266 27.1843C101.301 27.2327 101.319 27.288 101.319 27.3503C101.319 27.4056 101.303 27.4557 101.272 27.5006C101.243 27.5455 101.196 27.587 101.129 27.625C101.055 27.67 100.953 27.7097 100.823 27.7443C100.692 27.7823 100.529 27.8013 100.332 27.8013C100.029 27.8013 99.7545 27.7408 99.5081 27.6199C99.2617 27.4989 99.0663 27.3174 98.922 27.0755C98.7777 26.8301 98.7056 26.5224 98.7056 26.1526C98.7056 25.7897 98.7777 25.4855 98.922 25.2401C99.0699 24.9947 99.2634 24.8097 99.5028 24.6853C99.7457 24.5574 100.01 24.4935 100.295 24.4935C100.499 24.4935 100.675 24.5159 100.823 24.5609C100.974 24.6058 101.09 24.6646 101.171 24.7372C101.252 24.8063 101.293 24.8823 101.293 24.9653Z" fill="black"/>
<path d="M103.42 25.8415V26.5725H102.808V25.8052C102.808 25.7188 102.827 25.6479 102.866 25.5926C102.905 25.5339 102.963 25.4786 103.04 25.4267C103.146 25.3645 103.28 25.3127 103.442 25.2712C103.603 25.2297 103.778 25.209 103.964 25.209C104.285 25.209 104.445 25.304 104.445 25.4941C104.445 25.5391 104.438 25.5823 104.424 25.6237C104.413 25.6618 104.397 25.6946 104.376 25.7222C104.341 25.7153 104.295 25.7084 104.239 25.7015C104.186 25.6946 104.131 25.6911 104.075 25.6911C103.941 25.6911 103.818 25.7067 103.706 25.7378C103.593 25.7655 103.498 25.8 103.42 25.8415ZM102.808 26.3548L103.42 26.3911V27.7132C103.392 27.7236 103.354 27.7322 103.304 27.7391C103.255 27.7495 103.2 27.7547 103.141 27.7547C103.028 27.7547 102.943 27.7339 102.887 27.6924C102.834 27.651 102.808 27.5801 102.808 27.4799V26.3548Z" fill="black"/>
<path d="M105.814 24.5453C105.814 24.4485 105.848 24.3673 105.914 24.3016C105.985 24.236 106.071 24.2031 106.173 24.2031C106.282 24.2031 106.368 24.236 106.432 24.3016C106.499 24.3673 106.532 24.4485 106.532 24.5453C106.532 24.6386 106.499 24.7199 106.432 24.789C106.368 24.8547 106.282 24.8875 106.173 24.8875C106.071 24.8875 105.985 24.8547 105.914 24.789C105.848 24.7199 105.814 24.6386 105.814 24.5453ZM105.867 26.3548H106.479V27.7132C106.455 27.7236 106.418 27.7322 106.368 27.7391C106.319 27.7495 106.265 27.7547 106.205 27.7547C106.092 27.7547 106.008 27.7339 105.951 27.6924C105.895 27.651 105.867 27.5801 105.867 27.4799V26.3548ZM106.479 26.6607H105.867V25.2971C105.895 25.2902 105.934 25.2833 105.983 25.2764C106.036 25.266 106.092 25.2608 106.152 25.2608C106.265 25.2608 106.347 25.2815 106.4 25.323C106.453 25.361 106.479 25.4336 106.479 25.5408V26.6607Z" fill="black"/>
<path d="M109.418 25.6911C109.204 25.6911 109.022 25.762 108.875 25.9037C108.73 26.042 108.658 26.2442 108.658 26.5103C108.658 26.7696 108.728 26.9683 108.869 27.1066C109.01 27.2448 109.191 27.314 109.413 27.314C109.547 27.314 109.659 27.2967 109.751 27.2621C109.842 27.2275 109.923 27.1895 109.994 27.148C110.043 27.1792 110.082 27.2155 110.11 27.2569C110.138 27.2949 110.152 27.3433 110.152 27.4021C110.152 27.5162 110.08 27.6112 109.936 27.6873C109.791 27.7598 109.603 27.7961 109.371 27.7961C109.107 27.7961 108.875 27.7495 108.674 27.6562C108.473 27.5594 108.317 27.4159 108.204 27.2258C108.091 27.0323 108.035 26.7938 108.035 26.5103C108.035 26.22 108.095 25.978 108.215 25.7845C108.334 25.5909 108.494 25.4475 108.695 25.3541C108.896 25.2574 109.116 25.209 109.355 25.209C109.584 25.209 109.769 25.2487 109.909 25.3282C110.054 25.4077 110.126 25.5028 110.126 25.6134C110.126 25.6652 110.112 25.7119 110.084 25.7534C110.055 25.7948 110.022 25.8294 109.983 25.8571C109.913 25.8156 109.832 25.7776 109.74 25.743C109.652 25.7084 109.545 25.6911 109.418 25.6911Z" fill="black"/>
<path d="M112.572 26.6814L112.149 26.4014L113.348 25.2349C113.471 25.2383 113.569 25.2677 113.643 25.323C113.717 25.3749 113.754 25.4423 113.754 25.5252C113.754 25.5944 113.73 25.6566 113.68 25.7119C113.635 25.7672 113.562 25.8346 113.464 25.9141L112.572 26.6814ZM112.16 26.4896L112.63 26.2666L113.876 27.4125C113.869 27.5196 113.835 27.6043 113.775 27.6665C113.719 27.7287 113.642 27.7598 113.543 27.7598C113.466 27.7598 113.395 27.7408 113.332 27.7028C113.272 27.6648 113.209 27.6078 113.142 27.5317L112.16 26.4896ZM111.679 26.3444L112.292 26.3807V27.7132C112.264 27.7236 112.225 27.7322 112.176 27.7391C112.126 27.7495 112.072 27.7547 112.012 27.7547C111.899 27.7547 111.815 27.7339 111.759 27.6924C111.706 27.651 111.679 27.5801 111.679 27.4799V26.3444ZM112.292 26.6866L111.679 26.6503V24.3535C111.704 24.3466 111.741 24.3397 111.79 24.3327C111.843 24.3224 111.899 24.3172 111.959 24.3172C112.075 24.3172 112.16 24.3379 112.213 24.3794C112.265 24.4174 112.292 24.4883 112.292 24.592V26.6866Z" fill="black"/>
<path d="M115.527 26.8162L115.501 26.3911L116.948 26.1837C116.937 26.042 116.883 25.921 116.784 25.8208C116.685 25.7171 116.546 25.6652 116.367 25.6652C116.18 25.6652 116.025 25.7292 115.902 25.8571C115.779 25.9849 115.716 26.1681 115.712 26.4066L115.728 26.6503C115.756 26.8819 115.842 27.053 115.987 27.1636C116.135 27.2742 116.323 27.3295 116.552 27.3295C116.7 27.3295 116.835 27.307 116.958 27.2621C117.085 27.2172 117.185 27.1688 117.259 27.1169C117.305 27.148 117.342 27.1861 117.37 27.231C117.402 27.2725 117.418 27.3209 117.418 27.3762C117.418 27.4591 117.377 27.5334 117.296 27.5991C117.219 27.6613 117.111 27.7097 116.974 27.7443C116.84 27.7789 116.687 27.7961 116.515 27.7961C116.24 27.7961 115.999 27.7477 115.791 27.651C115.587 27.5507 115.427 27.4021 115.311 27.2051C115.195 27.0081 115.137 26.7661 115.137 26.4792C115.137 26.2684 115.168 26.0835 115.232 25.9245C115.299 25.7655 115.388 25.6341 115.501 25.5304C115.614 25.4233 115.744 25.3438 115.892 25.2919C116.043 25.2366 116.201 25.209 116.367 25.209C116.596 25.209 116.796 25.2556 116.969 25.3489C117.145 25.4388 117.28 25.565 117.375 25.7274C117.474 25.8899 117.523 26.0748 117.523 26.2822C117.523 26.3755 117.499 26.4447 117.449 26.4896C117.403 26.5345 117.338 26.5622 117.254 26.5725L115.527 26.8162Z" fill="black"/>
<path d="M119.034 26.3548H119.641V26.9873C119.641 27.1048 119.676 27.1895 119.746 27.2414C119.82 27.2898 119.921 27.314 120.047 27.314C120.104 27.314 120.165 27.3053 120.232 27.288C120.299 27.2708 120.357 27.2517 120.406 27.231C120.431 27.2587 120.452 27.2915 120.47 27.3295C120.491 27.3675 120.501 27.4107 120.501 27.4591C120.501 27.5559 120.454 27.6371 120.359 27.7028C120.264 27.765 120.118 27.7961 119.921 27.7961C119.646 27.7961 119.43 27.7374 119.271 27.6199C119.113 27.4989 119.034 27.3001 119.034 27.0236V26.3548ZM119.398 25.8052V25.3334H120.438C120.452 25.3541 120.466 25.387 120.48 25.4319C120.494 25.4734 120.501 25.5183 120.501 25.5667C120.501 25.6462 120.482 25.7067 120.443 25.7482C120.404 25.7862 120.353 25.8052 120.29 25.8052H119.398ZM119.641 26.5H119.034V24.6283C119.062 24.6179 119.1 24.6093 119.15 24.6023C119.202 24.592 119.257 24.5868 119.313 24.5868C119.426 24.5868 119.509 24.6075 119.562 24.649C119.614 24.687 119.641 24.7579 119.641 24.8616V26.5Z" fill="black"/>
<defs>
<linearGradient id="paint0_linear_502_9017" x1="7.30001" y1="-5.84948" x2="22.3529" y2="44.1467" gradientUnits="userSpaceOnUse">
<stop stop-color="#355ADA"/>
<stop offset="0.421875" stop-color="#496EEF"/>
<stop offset="1" stop-color="#00ECAE"/>
</linearGradient>
<linearGradient id="paint1_linear_502_9017" x1="59.3363" y1="4.40802" x2="60.5467" y2="26.2732" gradientUnits="userSpaceOnUse">
<stop stop-color="#355ADA"/>
<stop offset="0.421875" stop-color="#496EEF"/>
<stop offset="1" stop-color="#00ECAE"/>
</linearGradient>
</defs>
</svg>
