<svg width="25" height="25" viewBox="0 0 25 25" fill="none" xmlns="http://www.w3.org/2000/svg">
<g clip-path="url(#clip0_502_9063)">
<path d="M12.1404 23.0708C11.8013 22.9284 11.4288 22.8319 11.1288 22.6351C10.3351 22.1149 10.0068 21.1547 10.2677 20.2789C10.5255 19.4141 11.339 18.7601 12.2443 18.6898C13.2521 18.6116 14.1503 19.0828 14.5612 19.9287C14.6433 20.0974 14.7286 20.1536 14.9241 20.1518C16.1473 20.1414 17.3706 20.1505 18.5945 20.145C19.6279 20.1402 20.4787 19.5736 20.8121 18.6825C20.8191 18.6629 20.8217 18.6415 20.8319 18.5957C20.6922 18.6158 20.5646 18.6385 20.4357 18.6513C19.1144 18.7851 17.9482 17.8659 17.9021 16.5983C17.8623 15.5262 17.8662 14.4505 17.904 13.3785C17.9431 12.2637 18.9407 11.3707 20.1126 11.3451C20.5704 11.3353 21.0294 11.3622 21.4859 11.3353C21.9718 11.3065 22.3142 11.4667 22.5001 11.9025V18.3023C22.4885 18.328 22.4687 18.353 22.4661 18.3793C22.2892 20.0399 20.7473 21.6541 18.4778 21.6119C17.2795 21.5899 16.08 21.6101 14.8812 21.6052C14.7299 21.6052 14.6459 21.6358 14.5792 21.7831C14.3612 22.2671 13.99 22.6253 13.4912 22.849C13.2771 22.9449 13.0425 22.9975 12.8168 23.0696H12.1411L12.1404 23.0708ZM20.9672 12.804C20.7152 12.804 20.4909 12.8021 20.2671 12.804C19.7356 12.8083 19.4317 13.0967 19.4305 13.6059C19.4279 14.522 19.4285 15.4382 19.4305 16.3538C19.4311 16.8091 19.7561 17.1404 20.1953 17.1386C20.6325 17.1367 20.9621 16.8018 20.9634 16.3507C20.9659 15.5709 20.9659 14.7904 20.9666 14.0105C20.9666 13.6181 20.9666 13.2251 20.9666 12.8034L20.9672 12.804ZM11.7333 20.862C11.7288 21.2696 12.0705 21.6034 12.4962 21.6076C12.9098 21.6119 13.2604 21.2874 13.2688 20.8932C13.2778 20.4788 12.9469 20.1481 12.5174 20.1426C12.0821 20.1365 11.7385 20.4519 11.7333 20.862Z" fill="url(#paint0_linear_502_9063)"/>
<path d="M2.58511 9.10757C2.75757 8.52449 2.88066 7.92307 3.11018 7.36138C4.49049 3.98086 7.05684 1.89423 10.7926 1.22864C16.1702 0.270286 21.3593 3.76572 22.3216 8.92238C22.3511 9.08068 22.371 9.25426 22.3344 9.40705C22.2524 9.75421 21.9184 9.96202 21.5407 9.93818C21.1747 9.91496 20.9009 9.66254 20.8349 9.29704C20.4611 7.22631 19.4123 5.53146 17.6787 4.23878C12.7826 0.588719 5.50215 3.13313 4.22507 8.93277C4.19109 9.08618 4.17121 9.24509 4.11736 9.39239C3.99555 9.72549 3.60832 9.92779 3.25122 9.86178C2.88515 9.79394 2.62743 9.48346 2.58447 9.10696L2.58511 9.10757Z" fill="url(#paint1_linear_502_9063)"/>
<path d="M2.50375 14.3077C2.50375 13.5987 2.5031 12.8903 2.50375 12.1814C2.50439 11.6221 2.80186 11.3361 3.3936 11.3422C4.00843 11.3483 4.6303 11.3141 5.23551 11.3923C6.26256 11.5255 7.06587 12.3861 7.09664 13.3707C7.13126 14.4507 7.13575 15.5332 7.09792 16.6125C7.05689 17.7775 6.00612 18.6882 4.79506 18.6723C3.56093 18.6558 2.54542 17.7304 2.5108 16.5624C2.48836 15.8113 2.50631 15.0595 2.50631 14.3077H2.50375ZM4.03792 12.8121C4.03792 14.0418 4.03151 15.2428 4.04176 16.4438C4.04497 16.8301 4.41296 17.1424 4.81302 17.1382C5.21114 17.1345 5.56439 16.8295 5.5676 16.4542C5.57593 15.4672 5.57529 14.4801 5.56632 13.4936C5.56311 13.1501 5.29 12.8531 4.93226 12.8176C4.64505 12.7889 4.35206 12.8121 4.03792 12.8121Z" fill="url(#paint2_linear_502_9063)"/>
<path d="M12.4932 4.75029C11.563 4.75518 10.6789 4.94588 9.83776 5.32482C9.71659 5.37921 9.59093 5.43728 9.46143 5.45928C9.09728 5.52162 8.74916 5.31382 8.63055 4.98132C8.50554 4.63111 8.65427 4.26439 9.01073 4.0902C9.68902 3.75954 10.4083 3.5334 11.1584 3.41422C12.8356 3.14835 14.4441 3.36471 15.9725 4.08287C16.329 4.25033 16.5072 4.55899 16.4457 4.87925C16.3489 5.38288 15.8206 5.64386 15.3276 5.41405C14.655 5.0999 13.9562 4.87681 13.21 4.79797C12.9715 4.77291 12.7311 4.76557 12.4919 4.74968L12.4932 4.75029Z" fill="url(#paint3_linear_502_9063)"/>
</g>
<defs>
<linearGradient id="paint0_linear_502_9063" x1="12.5923" y1="9.35007" x2="17.3917" y2="26.2426" gradientUnits="userSpaceOnUse">
<stop stop-color="#355ADA"/>
<stop offset="0.421875" stop-color="#496EEF"/>
<stop offset="1" stop-color="#00ECAE"/>
</linearGradient>
<linearGradient id="paint1_linear_502_9063" x1="6.45582" y1="-0.427234" x2="8.26881" y2="13.1244" gradientUnits="userSpaceOnUse">
<stop stop-color="#355ADA"/>
<stop offset="0.421875" stop-color="#496EEF"/>
<stop offset="1" stop-color="#00ECAE"/>
</linearGradient>
<linearGradient id="paint2_linear_502_9063" x1="3.40518" y1="10.1018" x2="7.81157" y2="19.4223" gradientUnits="userSpaceOnUse">
<stop stop-color="#355ADA"/>
<stop offset="0.421875" stop-color="#496EEF"/>
<stop offset="1" stop-color="#00ECAE"/>
</linearGradient>
<linearGradient id="paint3_linear_502_9063" x1="10.1282" y1="2.93433" x2="10.4097" y2="6.32237" gradientUnits="userSpaceOnUse">
<stop stop-color="#355ADA"/>
<stop offset="0.421875" stop-color="#496EEF"/>
<stop offset="1" stop-color="#00ECAE"/>
</linearGradient>
<clipPath id="clip0_502_9063">
<rect width="20" height="22" fill="white" transform="translate(2.5 1.07031)"/>
</clipPath>
</defs>
</svg>
