<svg width="25" height="25" viewBox="0 0 25 25" fill="none" xmlns="http://www.w3.org/2000/svg">
<path d="M12.5199 20.6002C10.1899 20.6002 7.85987 20.2302 5.64987 19.4902C4.80987 19.2002 4.16987 18.6102 3.88987 17.8402C3.59987 17.0702 3.69987 16.2202 4.15987 15.4602L5.30987 13.5502C5.54987 13.1502 5.76987 12.3502 5.76987 11.8802V8.99023C5.76987 5.27023 8.79987 2.24023 12.5199 2.24023C16.2399 2.24023 19.2699 5.27023 19.2699 8.99023V11.8802C19.2699 12.3402 19.4899 13.1502 19.7299 13.5602L20.8699 15.4602C21.2999 16.1802 21.3799 17.0502 21.0899 17.8402C20.7999 18.6302 20.1699 19.2302 19.3799 19.4902C17.1799 20.2302 14.8499 20.6002 12.5199 20.6002ZM12.5199 3.74023C9.62987 3.74023 7.26987 6.09023 7.26987 8.99023V11.8802C7.26987 12.6102 6.96987 13.6902 6.59987 14.3202L5.44987 16.2302C5.22987 16.6002 5.16987 16.9902 5.29987 17.3202C5.41987 17.6602 5.71987 17.9202 6.12987 18.0602C10.3099 19.4602 14.7399 19.4602 18.9199 18.0602C19.2799 17.9402 19.5599 17.6702 19.6899 17.3102C19.8199 16.9502 19.7899 16.5602 19.5899 16.2302L18.4399 14.3202C18.0599 13.6702 17.7699 12.6002 17.7699 11.8702V8.99023C17.7699 6.09023 15.4199 3.74023 12.5199 3.74023Z" fill="url(#paint0_linear_502_9076)"/>
<path d="M14.3801 4.01C14.3101 4.01 14.2401 4 14.1701 3.98C13.8801 3.9 13.6001 3.84 13.3301 3.8C12.4801 3.69 11.6601 3.75 10.8901 3.98C10.6101 4.07 10.3101 3.98 10.1201 3.77C9.93011 3.56 9.87011 3.26 9.98011 2.99C10.3901 1.94 11.3901 1.25 12.5301 1.25C13.6701 1.25 14.6701 1.93 15.0801 2.99C15.1801 3.26 15.1301 3.56 14.9401 3.77C14.7901 3.93 14.5801 4.01 14.3801 4.01Z" fill="url(#paint1_linear_502_9076)"/>
<path d="M12.52 22.8809C11.53 22.8809 10.57 22.4809 9.87002 21.7809C9.17002 21.0809 8.77002 20.1209 8.77002 19.1309H10.27C10.27 19.7209 10.51 20.3009 10.93 20.7209C11.35 21.1409 11.93 21.3809 12.52 21.3809C13.76 21.3809 14.77 20.3709 14.77 19.1309H16.27C16.27 21.2009 14.59 22.8809 12.52 22.8809Z" fill="url(#paint2_linear_502_9076)"/>
<defs>
<linearGradient id="paint0_linear_502_9076" x1="7.1603" y1="-0.859631" x2="15.2834" y2="25.1576" gradientUnits="userSpaceOnUse">
<stop stop-color="#355ADA"/>
<stop offset="0.421875" stop-color="#496EEF"/>
<stop offset="1" stop-color="#00ECAE"/>
</linearGradient>
<linearGradient id="paint1_linear_502_9076" x1="10.9446" y1="0.783205" x2="11.6089" y2="4.97771" gradientUnits="userSpaceOnUse">
<stop stop-color="#355ADA"/>
<stop offset="0.421875" stop-color="#496EEF"/>
<stop offset="1" stop-color="#00ECAE"/>
</linearGradient>
<linearGradient id="paint2_linear_502_9076" x1="10.2387" y1="18.4977" x2="11.0893" y2="24.2029" gradientUnits="userSpaceOnUse">
<stop stop-color="#355ADA"/>
<stop offset="0.421875" stop-color="#496EEF"/>
<stop offset="1" stop-color="#00ECAE"/>
</linearGradient>
</defs>
</svg>
