<svg width="15" height="4" viewBox="0 0 15 4" fill="none" xmlns="http://www.w3.org/2000/svg">
<path d="M2.5 0.670312C1.7268 0.670312 1.1 1.29711 1.1 2.07031C1.1 2.84351 1.7268 3.47031 2.5 3.47031C3.2732 3.47031 3.9 2.84351 3.9 2.07031C3.9 1.29711 3.2732 0.670312 2.5 0.670312ZM7.5 0.670312C6.7268 0.670312 6.1 1.29711 6.1 2.07031C6.1 2.84351 6.7268 3.47031 7.5 3.47031C8.2732 3.47031 8.9 2.84351 8.9 2.07031C8.9 1.29711 8.2732 0.670312 7.5 0.670312ZM12.5 0.670312C11.7268 0.670312 11.1 1.29711 11.1 2.07031C11.1 2.84351 11.7268 3.47031 12.5 3.47031C13.2732 3.47031 13.9 2.84351 13.9 2.07031C13.9 1.29711 13.2732 0.670312 12.5 0.670312Z" fill="black" stroke="black" stroke-width="0.3"/>
</svg>
